<svg xmlns="http://www.w3.org/2000/svg" version="1.1" viewBox="-5.0 -10.0 110.0 135.0">
  <path d="m53.188 10.672 10.609 21.5h0.003906c0.51562 1.0508 1.5195 1.7773 2.6758 1.9453l23.727 3.4492c1.3398 0.19531 2.4531 1.1328 2.8711 2.418 0.41797 1.2891 0.070312 2.7031-0.89844 3.6445l-17.168 16.734-0.003906 0.003907c-0.83594 0.81641-1.2188 1.9922-1.0195 3.1445l4.0547 23.633h-0.003906c0.23047 1.3359-0.32031 2.6836-1.4141 3.4766-1.0938 0.79688-2.5469 0.90234-3.7461 0.27344l-21.223-11.156 0.003906-0.003906c-1.0391-0.54297-2.2734-0.54297-3.3125 0l-21.219 11.16c-1.1992 0.62891-2.6523 0.52344-3.7461-0.27344-1.0938-0.79297-1.6445-2.1406-1.4141-3.4766l4.0547-23.633-0.003906 0.003906c0.19922-1.1562-0.18359-2.332-1.0195-3.1484l-17.172-16.738c-0.96875-0.94141-1.3164-2.3555-0.89844-3.6445 0.41797-1.2852 1.5312-2.2227 2.8711-2.418l23.727-3.4492c1.1562-0.16797 2.1602-0.89453 2.6758-1.9453l10.609-21.5h0.003906c0.59766-1.2148 1.8359-1.9805 3.1875-1.9805s2.5898 0.76562 3.1875 1.9805z" fill="yellow" stroke="black" stroke-width="1"/>
</svg>