<svg xmlns="http://www.w3.org/2000/svg" viewBox="0 0 100 125" fill="none" x="0px" y="0px"><path fill-rule="evenodd" clip-rule="evenodd" d="M91.6668 50C91.6668 73.0119 73.012 91.6667 50.0002 91.6667C26.9883 91.6667 8.3335 73.0119 8.3335 50C8.3335 26.9881 26.9883 8.33334 50.0002 8.33334C73.012 8.33334 91.6668 26.9881 91.6668 50ZM78.6428 70.8355C72.203 79.6732 61.7723 85.4167 50.0002 85.4167C38.228 85.4167 27.7974 79.6732 21.3575 70.8355C24.3217 66.7597 28.1293 63.3534 32.5341 60.8563C37.8401 57.8484 43.8328 56.2618 49.932 56.2501C56.0312 56.2383 62.0301 57.8019 67.3475 60.7893C71.8017 63.2918 75.6514 66.7223 78.6428 70.8355ZM82.065 65.0592C78.8183 61.1466 74.8715 57.8476 70.4088 55.3404C67.0079 53.4297 63.3702 52.0141 59.6053 51.1222C63.8772 48.1045 66.6668 43.1281 66.6668 37.5C66.6668 28.2953 59.2049 20.8333 50.0002 20.8333C40.7954 20.8333 33.3335 28.2953 33.3335 37.5C33.3335 43.128 36.1231 48.1045 40.395 51.1222C36.5781 52.0265 32.8923 53.4689 29.4519 55.4192C25.0457 57.917 21.1475 61.1882 17.9353 65.0592C15.7853 60.4892 14.5835 55.385 14.5835 50C14.5835 30.4399 30.4401 14.5833 50.0002 14.5833C69.5602 14.5833 85.4168 30.4399 85.4168 50C85.4168 55.385 84.215 60.4892 82.065 65.0592ZM50.0002 47.9167C55.7531 47.9167 60.4168 43.253 60.4168 37.5C60.4168 31.747 55.7531 27.0833 50.0002 27.0833C44.2472 27.0833 39.5835 31.747 39.5835 37.5C39.5835 43.253 44.2472 47.9167 50.0002 47.9167Z" fill="white"/></svg>